<?xml version="1.0" encoding="utf-8"?>
<!-- Generator: Adobe Illustrator 21.0.0, SVG Export Plug-In . SVG Version: 6.00 Build 0)  -->
<svg version="1.1" id="Layer_1" xmlns="http://www.w3.org/2000/svg" xmlns:xlink="http://www.w3.org/1999/xlink" x="0px" y="0px"
	 viewBox="0 0 56.7 56.7" style="enable-background:new 0 0 56.7 56.7;" xml:space="preserve">
<style type="text/css">
	.st0{fill:#282828;}
	.st1{display:none;}
	.st2{display:inline;fill:#DEDEDE;}
	.st3{clip-path:url(#iv_2_);fill:url(#Gradient_1_);}
</style>
<g id="Background">
	<rect id="Background_1_" class="st0" width="56.7" height="56.7"/>
	<g id="Layer_3" class="st1">
		<rect class="st2" width="56.7" height="56.7"/>
	</g>
</g>
<g id="iv_1_">
	<defs>
		<path id="iv" d="M15.4,38.8c0.6-0.2,1-0.4,1.2-0.6s0.4-0.6,0.4-1s0.1-1.2,0.1-2.3v-8.2c0-0.6,0-1-0.1-1.4s-0.2-0.6-0.3-0.8
			s-0.3-0.4-0.6-0.5s-0.6-0.2-1-0.3v-1.2l4.8-0.1h2.2v12.5c0,0.7,0,1.2,0,1.5s0,0.6,0.1,0.8s0.1,0.4,0.1,0.5s0.1,0.3,0.3,0.4
			s0.3,0.2,0.5,0.4s0.5,0.2,0.8,0.3V40h-8.6V38.8z M22.1,15.5v4.3h-4.8v-4.3H22.1z M34.4,22.5v1.2c-0.6,0.1-1,0.3-1.2,0.5
			s-0.4,0.5-0.4,0.9c0,0.6,0.2,1.3,0.5,2.2l2.5,7.7l2.8-6.7c0.2-0.6,0.4-1.1,0.5-1.5s0.2-0.8,0.2-1.3c0-0.5-0.1-0.9-0.4-1.2
			s-0.7-0.5-1.2-0.6v-1.2h6.8v1.2c-0.3,0.1-0.6,0.2-0.8,0.4s-0.4,0.4-0.6,0.6s-0.4,0.6-0.7,1.1S41.8,27,41.3,28l-5.5,12.1h-3.3
			l-4.6-13.4c-0.3-0.9-0.6-1.6-0.8-1.9s-0.4-0.6-0.7-0.8s-0.5-0.3-0.9-0.4v-1.2H34.4z"/>
	</defs>
	<clipPath id="iv_2_">
		<use xlink:href="#iv"  style="overflow:visible;"/>
	</clipPath>
	
		<linearGradient id="Gradient_1_" gradientUnits="userSpaceOnUse" x1="124.9587" y1="57.566" x2="158.6275" y2="21.65" gradientTransform="matrix(1 0 0 -1 -114.96 66.34)">
		<stop  offset="0" style="stop-color:#62D0FF"/>
		<stop  offset="0.1973" style="stop-color:#73AAEC"/>
		<stop  offset="0.4721" style="stop-color:#897AD3"/>
		<stop  offset="0.6092" style="stop-color:#9168CA"/>
		<stop  offset="0.6182" style="stop-color:#8F66C8"/>
		<stop  offset="0.7854" style="stop-color:#6C47A0"/>
		<stop  offset="0.9184" style="stop-color:#573488"/>
		<stop  offset="1" style="stop-color:#4F2D7F"/>
	</linearGradient>
	<rect id="Gradient" class="st3" width="56.7" height="56.7"/>
</g>
</svg>
